<svg xmlns="http://www.w3.org/2000/svg" viewBox="0 0 601.41 538.59"><defs><style>.cls-1{fill:#6a983c;}.cls-2{fill:#feac01;}.cls-3{fill:#44385a;}.cls-4{fill:#faf480;}.cls-5{fill:#fff;}.cls-6{fill:#e05aa7;}.cls-7{fill:#a53593;}.cls-8{fill:#d351b0;}.cls-9{fill:#00dbb2;}.cls-10{fill:#93f6d8;}.cls-11{fill:#febe44;}.cls-12{fill:#10add4;}.cls-13{fill:#21769e;}</style></defs><g id="BANNER_1" data-name="BANNER 1"><path class="cls-1" d="M78.45,469.19a1191.87,1191.87,0,0,1,119.23-70.14c9.35-4.78,18.84-9.45,28.91-12.43,14.1-4.18,29-4.95,43.7-5a459.09,459.09,0,0,1,60.77,3.89c3.91.51,7.89,1.1,11.4,2.89,5.07,2.59,8.67,7.51,10.59,12.87,6.38,17.83-5.13,37.59-20.16,49.12s-33.45,17.82-49.12,28.47c-27.93,19-49,52.42-82.6,55.78-12,1.21-24-1.83-35.75-4.84C146.44,524.93,21.94,505.44,78.45,469.19Z"/><path class="cls-2" d="M120.62,459.34c-4.58,15.74-17.53,31.51-27.87,28.5s-15-18.21-10.42-33.95,16.69-26.06,27-23.05S125.21,443.6,120.62,459.34Z"/><path class="cls-3" d="M95.1,457.61c4-13.56,13-23.17,21.12-23.17a16.38,16.38,0,0,0-2.79-1.91C105.13,434.38,96.74,444,92.94,457c-3.69,12.69-2,25,3.69,31.15a12.4,12.4,0,0,0,2.55-.6C93.31,482.43,91.41,470.28,95.1,457.61Z"/><path class="cls-3" d="M117.37,462.05c-1.64,5.65-5.7,11.48-8.62,10.63s-4-6.12-2.3-11.77,5.34-9.54,8.26-8.69S119,456.4,117.37,462.05Z"/><path class="cls-3" d="M196.64,492a8.87,8.87,0,0,1-1-.18l-79.4-19.23A8.5,8.5,0,0,1,113.79,457l114.14-69.57,9.86-55.81a8.51,8.51,0,0,1,16.76,3L244,394.2a8.48,8.48,0,0,1-4,5.78L140.2,460.85,196,474.36l118.3-79.25,9.13-49.63a8.51,8.51,0,1,1,16.74,3.08l-9.78,53.17a8.5,8.5,0,0,1-3.63,5.53l-124.4,83.32A8.47,8.47,0,0,1,196.64,492Z"/><path class="cls-2" d="M348.2,406.5c-.8,14.06-8.59,29.77-17.83,29.25s-16.09-12.35-15.29-26.42,8.93-25,18.17-24.52S349,392.43,348.2,406.5Z"/><path class="cls-3" d="M326.5,410c.68-12.12,6.38-21.91,13.2-23.48a14.84,14.84,0,0,0-2.71-1.07c-6.59,3.16-11.77,12.8-12.43,24.44-.64,11.34,3.19,21.28,9.12,25.38a11.07,11.07,0,0,0,2-1C329.79,431.11,325.85,421.31,326.5,410Z"/><path class="cls-3" d="M346,409.39c-.29,5.05-2.56,10.72-5.16,10.57s-4.5-4.36-4.21-9.41,2.63-9,5.24-8.87S346.29,404.34,346,409.39Z"/><path class="cls-2" d="M235.26,482.12c-.72,16.38-9.55,34.77-20.31,34.3s-18.9-14.13-18.19-30.51,10-29.27,20.78-28.8S236,465.74,235.26,482.12Z"/><path class="cls-3" d="M210.06,486.49c.61-14.1,7.1-25.58,15-27.52a16.86,16.86,0,0,0-3.16-1.19c-7.62,3.77-13.5,15.06-14.09,28.62-.58,13.2,4,24.71,11,29.38a12.45,12.45,0,0,0,2.33-1.18C214.21,511,209.48,499.68,210.06,486.49Z"/><path class="cls-3" d="M232.74,485.52c-.26,5.88-2.81,12.51-5.85,12.38s-5.29-5-5-10.89,2.93-10.54,6-10.4S233,479.64,232.74,485.52Z"/><path class="cls-2" d="M377.74,216.69a6.68,6.68,0,0,1-5.87-7.41l4-34.86a6.65,6.65,0,0,1,2-4l14-13.62L282.43,144.1,263.2,159.34l-4.27,36.86a6.68,6.68,0,0,1-13.28-1.54l4.58-39.61a6.71,6.71,0,0,1,2.49-4.47l23.57-18.68a6.72,6.72,0,0,1,4.93-1.4l126.22,14.62a6.69,6.69,0,0,1,3.89,11.44l-22.42,21.77-3.76,32.49A6.68,6.68,0,0,1,377.74,216.69Z"/><path class="cls-3" d="M371.75,210.34a1.07,1.07,0,0,1-.94-1.18l4-34.86a7.82,7.82,0,0,1,2.3-4.67l22.44-21.78a1.06,1.06,0,0,1,1.48,1.53l-22.44,21.78a5.62,5.62,0,0,0-1.67,3.39l-4,34.85A1.07,1.07,0,0,1,371.75,210.34Z"/><path class="cls-3" d="M377.85,148.42a6.67,6.67,0,0,1,7.14-5.89l-.26,0L302.87,133a6.68,6.68,0,1,0-1.54,13.28l81.86,9.48.27,0A6.68,6.68,0,0,1,377.85,148.42Z"/><polygon class="cls-3" points="231.07 243.42 51.64 222.63 247.69 193.56 379.59 208.84 231.07 243.42"/><polygon class="cls-4" points="231.07 243.42 222.08 414.58 351.05 351.25 379.59 208.84 231.07 243.42"/><polygon class="cls-4" points="51.64 222.63 85.62 386.73 222.08 414.58 231.07 243.42 51.64 222.63"/><path class="cls-2" d="M51,228.1a5.51,5.51,0,0,1,1.27-10.94l178.49,20.68,147.58-34.37a5.66,5.66,0,0,1,1.88-.1,5.51,5.51,0,0,1,.62,10.83L232.32,248.78a5.41,5.41,0,0,1-1.88.1Z"/><path class="cls-2" d="M59.4,269.11a5.49,5.49,0,0,1-4.72-6.18,5.52,5.52,0,0,1,6.09-4.74L228.4,280.6l142.52-41.45A5.51,5.51,0,0,1,374,249.73L230.36,291.49a5.46,5.46,0,0,1-2.17.19Z"/><path class="cls-2" d="M225.74,334.44,67.79,310.12a5.5,5.5,0,0,1,1.47-10.9l.2,0,156.59,24.11,137.44-48.5a5.49,5.49,0,0,1,7,3.36,5.51,5.51,0,0,1-3.36,7l-138.74,49a5.59,5.59,0,0,1-2.47.28Z"/><path class="cls-2" d="M223.7,377.26l-.33-.05L76.16,351.13a5.51,5.51,0,0,1,1.6-10.89l.32.05,145.62,25.8,132.36-55.52a5.5,5.5,0,0,1,4.26,10.15L226.46,376.87A5.56,5.56,0,0,1,223.7,377.26Z"/><path class="cls-2" d="M221.45,420.05,221,420,84.52,392.13a5.5,5.5,0,0,1,1.74-10.86,3.11,3.11,0,0,1,.44.07l134.64,27.47L348.62,346.3a5.51,5.51,0,0,1,4.86,9.89l-129,63.33A5.48,5.48,0,0,1,221.45,420.05Z"/><path class="cls-2" d="M85,392.2a5.48,5.48,0,0,1-4.75-4.35l-34-164.1a5.51,5.51,0,0,1,4.27-6.51,5.72,5.72,0,0,1,1.75-.08A5.51,5.51,0,0,1,57,221.52l34,164.1a5.51,5.51,0,0,1-4.28,6.5A5.4,5.4,0,0,1,85,392.2Z"/><path class="cls-2" d="M119.1,399.17a5.52,5.52,0,0,1-4.82-4.71L91,228.59A5.51,5.51,0,0,1,102,227.06l23.24,165.87a5.52,5.52,0,0,1-4.69,6.22A6,6,0,0,1,119.1,399.17Z"/><path class="cls-2" d="M153.21,406.13a5.52,5.52,0,0,1-4.85-5.06L135.87,233.43a5.51,5.51,0,0,1,5.08-5.9,6.06,6.06,0,0,1,1,0,5.51,5.51,0,0,1,4.86,5.06l12.49,167.63a5.51,5.51,0,0,1-5.08,5.9A5.27,5.27,0,0,1,153.21,406.13Z"/><path class="cls-2" d="M187.33,413.09a5.51,5.51,0,0,1-4.87-5.41l-1.75-169.4a5.51,5.51,0,0,1,5.45-5.56,5.31,5.31,0,0,1,.69,0,5.53,5.53,0,0,1,4.87,5.41l1.75,169.4a5.52,5.52,0,0,1-5.45,5.57A5.32,5.32,0,0,1,187.33,413.09Z"/><path class="cls-2" d="M247.24,407.38a5.48,5.48,0,0,1-4.85-5.89l12.9-165.42A5.51,5.51,0,0,1,261.2,231l.22,0a5.49,5.49,0,0,1,4.84,5.9L253.37,402.34a5.51,5.51,0,0,1-5.92,5.06Z"/><path class="cls-2" d="M273,394.72a5.52,5.52,0,0,1-4.84-6.05L285,229A5.51,5.51,0,1,1,296,230.16l-16.8,159.66a5.52,5.52,0,0,1-6,4.9H273Z"/><path class="cls-2" d="M298.68,382a5.5,5.5,0,0,1-4.67-6.18l20.72-153.92a5.5,5.5,0,0,1,6-4.73l.16,0a5.44,5.44,0,0,1,3.62,2.11,5.51,5.51,0,0,1,1.08,4.07L304.92,377.31a5.54,5.54,0,0,1-6.09,4.74Z"/><path class="cls-2" d="M324.37,369.35a5.48,5.48,0,0,1-3.59-2.24,5.39,5.39,0,0,1-.95-4.1l24.62-148.16a5.51,5.51,0,0,1,6.08-4.56l.24,0a5.52,5.52,0,0,1,4.55,6.34L330.69,364.82a5.5,5.5,0,0,1-6.06,4.56Z"/><path class="cls-2" d="M350.42,356.71a3.65,3.65,0,0,1-.46-.07,5.51,5.51,0,0,1-4.31-6.48l28.54-142.41a5.54,5.54,0,0,1,6-4.39l.47.08a5.5,5.5,0,0,1,3.49,2.34,5.56,5.56,0,0,1,.82,4.14L356.45,352.33A5.54,5.54,0,0,1,350.42,356.71Z"/><path class="cls-2" d="M221.45,420.05a5.51,5.51,0,0,1-4.86-5.75l9-171.17a5.48,5.48,0,0,1,1.82-3.8,5.42,5.42,0,0,1,4-1.41l.32,0a5.53,5.53,0,0,1,4.89,5.76l-9,171.16a5.5,5.5,0,0,1-5.78,5.21Z"/><path class="cls-2" d="M51,228.1a5.5,5.5,0,0,1-.17-10.91l196.05-29.08a5.34,5.34,0,0,1,1.44,0l131.9,15.28A5.5,5.5,0,1,1,379,214.3L247.77,199.11l-195.33,29A5.34,5.34,0,0,1,51,228.1Z"/><path class="cls-3" d="M95.73,263.94h0l-31.12-4.16a1.05,1.05,0,0,1-.9-.83l-6.16-29.75a1.06,1.06,0,0,1,2.08-.43l6,29L96,261.82a1.07,1.07,0,0,1-.26,2.12Z"/><path class="cls-3" d="M332.32,355.31a1,1,0,0,1-.51-.21,1.06,1.06,0,0,1-.42-1l3.91-23.48a1.06,1.06,0,1,1,2.09.35l-3.56,21.43,11.89-5.83a1.06,1.06,0,1,1,.93,1.91l-13.74,6.75A1.09,1.09,0,0,1,332.32,355.31Z"/><path class="cls-3" d="M306.17,368.15a1.18,1.18,0,0,1-.5-.19,1.07,1.07,0,0,1-.43-1l3.38-25.13a1.08,1.08,0,0,1,1.18-.92h0a1.05,1.05,0,0,1,.91,1.19l-3.12,23.16,12.21-6a1.08,1.08,0,0,1,1.43.49,1.06,1.06,0,0,1-.49,1.42l-14,6.88A1.09,1.09,0,0,1,306.17,368.15Z"/><path class="cls-3" d="M280.07,381a1.05,1.05,0,0,1-.94-1.17L282,353a1.06,1.06,0,0,1,1.17-1h0a1.06,1.06,0,0,1,.93,1.17l-2.61,24.85L293.93,372a1.06,1.06,0,1,1,.94,1.91l-14.21,7A1.1,1.1,0,0,1,280.07,381Z"/><path class="cls-3" d="M254,393.78a1.07,1.07,0,0,1-.93-1.14l2.21-28.38a1.06,1.06,0,0,1,2.12.16l-2.07,26.52L268,384.69a1.08,1.08,0,0,1,1.43.49,1.06,1.06,0,0,1-.49,1.42l-14.39,7.07A1.15,1.15,0,0,1,254,393.78Z"/><path class="cls-3" d="M228,406.57a1.12,1.12,0,0,1-.46-.17,1.06,1.06,0,0,1-.48-.95l1.58-30a1.06,1.06,0,1,1,2.12.11l-1.48,28.17,12.93-6.36a1.07,1.07,0,0,1,1.43.49,1.06,1.06,0,0,1-.49,1.42l-14.56,7.15A1,1,0,0,1,228,406.57Z"/><path class="cls-3" d="M216.8,409l-.09,0-23.5-4.79a1.07,1.07,0,0,1-.85-1L192,371.86a1,1,0,0,1,1.05-1.07,1.06,1.06,0,0,1,1.08,1l.31,30.41,22.65,4.62a1.06,1.06,0,0,1-.33,2.1Z"/><path class="cls-3" d="M182.27,401.92h-.09l-23.36-4.77a1.07,1.07,0,0,1-.85-1l-2.29-30.69a1.06,1.06,0,0,1,1-1.14,1.05,1.05,0,0,1,1.14,1L160,395.22l22.57,4.6a1.06,1.06,0,0,1-.33,2.1Z"/><path class="cls-3" d="M147.7,394.87l-.09,0-23.18-4.73a1.06,1.06,0,0,1-.84-.89l-4.22-30.11a1.07,1.07,0,0,1,2.11-.3l4.11,29.37L148,392.77a1.05,1.05,0,0,1,.83,1.25A1.06,1.06,0,0,1,147.7,394.87Z"/><path class="cls-3" d="M113.08,387.8H113l-22.93-4.68a1.07,1.07,0,0,1-.83-.83l-6.11-29.52a1.06,1.06,0,1,1,2.08-.43l6,28.83,22.24,4.54a1.06,1.06,0,0,1-.33,2.1Z"/><path class="cls-3" d="M107.3,346.54h-.06L81.57,342a1.05,1.05,0,0,1-.85-.84l-6.14-29.6a1.07,1.07,0,0,1,2.09-.43l6,28.9,25,4.42a1.06,1.06,0,0,1-.31,2.1Z"/><path class="cls-3" d="M101.51,305.25h0l-28.39-4.37a1.08,1.08,0,0,1-.88-.84l-6.14-29.68a1.06,1.06,0,1,1,2.08-.43l6,28.95,27.66,4.26a1.07,1.07,0,0,1-.29,2.11Z"/><path class="cls-3" d="M338.36,319a1.09,1.09,0,0,1-.54-.23,1.05,1.05,0,0,1-.39-1l4-24a1.05,1.05,0,0,1,1.22-.88,1.08,1.08,0,0,1,.88,1.23l-3.68,22.09L353,310.72a1.06,1.06,0,0,1,.82,2l-14.88,6.24A1.09,1.09,0,0,1,338.36,319Z"/><path class="cls-3" d="M344.41,282.6a1.09,1.09,0,0,1-.57-.25,1.05,1.05,0,0,1-.35-1l4.39-22.87a1.06,1.06,0,0,1,2.09.4l-4.05,21.05,14.26-5a1.06,1.06,0,1,1,.71,2l-16,5.65A1.07,1.07,0,0,1,344.41,282.6Z"/><path class="cls-3" d="M350.47,246.12a1.07,1.07,0,0,1-.93-1.23l4.12-24.78a1.06,1.06,0,1,1,2.1.35l-3.84,23.11,15.49-4.51a1.07,1.07,0,0,1,.6,2.05l-17.12,5A1,1,0,0,1,350.47,246.12Z"/><path class="cls-3" d="M321.46,254.56a1.1,1.1,0,0,1-.57-.26,1.05,1.05,0,0,1-.36-.94L324.08,227a1.06,1.06,0,0,1,1.17-.92h0a1.07,1.07,0,0,1,.91,1.2L322.86,252l15.71-4.57a1.06,1.06,0,1,1,.59,2l-17.28,5A1.2,1.2,0,0,1,321.46,254.56Z"/><path class="cls-3" d="M292.49,263a1,1,0,0,1-.56-.24,1.06,1.06,0,0,1-.38-.93L294.49,234a1.06,1.06,0,0,1,1.16-.95,1,1,0,0,1,1,1.17l-2.77,26.29,15.9-4.62a1.06,1.06,0,1,1,.59,2L292.91,263A1,1,0,0,1,292.49,263Z"/><path class="cls-3" d="M263.54,271.4a1,1,0,0,1-.55-.23,1.06,1.06,0,0,1-.39-.91l2.29-29.4a1.06,1.06,0,0,1,1.14-1,1,1,0,0,1,1,1.14l-2.17,27.86,16.05-4.66a1.06,1.06,0,0,1,1.32.72,1.07,1.07,0,0,1-.72,1.32L264,271.37A1,1,0,0,1,263.54,271.4Z"/><path class="cls-3" d="M234.61,279.81a1,1,0,0,1-.54-.22,1,1,0,0,1-.4-.89l1.62-30.92a1.06,1.06,0,0,1,1.12-1,1,1,0,0,1,1,1.12l-1.54,29.42,16.19-4.71a1.06,1.06,0,1,1,.6,2L235,279.78A1,1,0,0,1,234.61,279.81Z"/><path class="cls-3" d="M223.52,281h0L192,276.8a1.06,1.06,0,0,1-.93-1l-.32-31.34a1.07,1.07,0,1,1,2.13,0l.31,30.41,30.62,4.1a1.06,1.06,0,0,1-.26,2.11Z"/><path class="cls-3" d="M181,275.33h0l-31.44-4.21a1,1,0,0,1-.92-1l-2.3-30.81a1.06,1.06,0,1,1,2.12-.16l2.23,29.95,30.59,4.09a1.06,1.06,0,0,1-.26,2.11Z"/><path class="cls-3" d="M138.36,269.64h0L107,265.45a1.07,1.07,0,0,1-.92-.91l-4.24-30.28A1.06,1.06,0,0,1,104,234l4.13,29.48,30.51,4.07a1.07,1.07,0,0,1-.27,2.12Z"/><path class="cls-3" d="M288.34,302.38a1.06,1.06,0,0,1-.94-1.17l2.91-27.57a1.05,1.05,0,0,1,1.17-.94h0a1.05,1.05,0,0,1,.93,1.17l-2.72,25.89,14.76-5.21a1.07,1.07,0,0,1,1.36.65,1.06,1.06,0,0,1-.65,1.36l-16.35,5.77A1.13,1.13,0,0,1,288.34,302.38Z"/><path class="cls-3" d="M316.36,292.49a1,1,0,0,1-.55-.23,1.08,1.08,0,0,1-.39-1l3.5-26a1.06,1.06,0,0,1,1.18-.91h0a1.06,1.06,0,0,1,.91,1.19l-3.26,24.29,14.55-5.14a1.07,1.07,0,0,1,.71,2l-16.2,5.71A1,1,0,0,1,316.36,292.49Z"/><path class="cls-3" d="M260.35,312.26a1.16,1.16,0,0,1-.53-.21,1.08,1.08,0,0,1-.41-.93L261.68,282a1.07,1.07,0,0,1,1.15-1,1,1,0,0,1,1,1.14l-2.14,27.49,14.95-5.27A1.06,1.06,0,0,1,278,305a1.08,1.08,0,0,1-.65,1.36l-16.49,5.81A1,1,0,0,1,260.35,312.26Z"/><path class="cls-3" d="M232.38,322.13a1.09,1.09,0,0,1-.51-.21,1.06,1.06,0,0,1-.42-.91l1.61-30.66a1.06,1.06,0,1,1,2.12.11l-1.53,29.08,15.11-5.33a1.06,1.06,0,0,1,1.36.64,1.07,1.07,0,0,1-.65,1.36l-16.61,5.86A1.12,1.12,0,0,1,232.38,322.13Z"/><path class="cls-3" d="M221.28,323.69h0l-28.85-4.44a1.07,1.07,0,0,1-.91-1l-.32-31.32a1.07,1.07,0,0,1,2.13,0l.31,30.42,28,4.3a1.06,1.06,0,0,1-.28,2.11Z"/><path class="cls-3" d="M181.4,317.55h0l-28.75-4.42a1.06,1.06,0,0,1-.9-1l-2.3-30.78a1.06,1.06,0,0,1,1-1.14,1.05,1.05,0,0,1,1.14,1l2.24,29.93,27.91,4.3a1.06,1.06,0,0,1-.28,2.11Z"/><path class="cls-3" d="M141.48,311.4h0l-28.6-4.4a1.08,1.08,0,0,1-.9-.91l-4.23-30.23a1.07,1.07,0,0,1,2.11-.3L113.94,305l27.82,4.29a1.06,1.06,0,0,1-.28,2.1Z"/><path class="cls-3" d="M144.59,353.15h-.07l-25.88-4.59a1.05,1.05,0,0,1-.87-.9l-4.23-30.17a1.07,1.07,0,0,1,2.11-.3l4.12,29.41,25.13,4.46a1.06,1.06,0,0,1-.31,2.1Z"/><path class="cls-3" d="M181.83,359.75h-.06l-26.06-4.62a1,1,0,0,1-.87-1l-2.29-30.74a1.06,1.06,0,0,1,2.12-.16l2.23,29.91,25.24,4.48a1.06,1.06,0,0,1-.31,2.1Z"/><path class="cls-3" d="M219,366.34H219l-26.18-4.64a1.06,1.06,0,0,1-.88-1l-.32-31.3a1.07,1.07,0,1,1,2.13,0l.31,30.41,25.31,4.49a1.06,1.06,0,0,1-.31,2.1Z"/><path class="cls-3" d="M230.17,364.38a1,1,0,0,1-.49-.19,1.06,1.06,0,0,1-.45-.92l1.59-30.36a1.06,1.06,0,0,1,1.12-1,1.08,1.08,0,0,1,1,1.12l-1.51,28.67,14-5.89a1.07,1.07,0,0,1,.83,2L230.7,364.3A1,1,0,0,1,230.17,364.38Z"/><path class="cls-3" d="M257.17,353.05a1,1,0,0,1-.5-.19,1.08,1.08,0,0,1-.44-.95l2.25-28.79a1.06,1.06,0,0,1,2.12.17l-2.11,27,13.84-5.81a1.07,1.07,0,0,1,.82,2L257.7,353A1.07,1.07,0,0,1,257.17,353.05Z"/><path class="cls-3" d="M284.2,341.71a1.07,1.07,0,0,1-.51-.2,1.06,1.06,0,0,1-.43-1l2.87-27.21a1.06,1.06,0,1,1,2.11.22L285.57,339l13.63-5.72a1.07,1.07,0,0,1,.82,2l-15.29,6.41A1.07,1.07,0,0,1,284.2,341.71Z"/><path class="cls-3" d="M311.26,330.36a1,1,0,0,1-.93-1.2l3.44-25.61a1.07,1.07,0,0,1,1.18-.91h0a1.06,1.06,0,0,1,.91,1.2l-3.2,23.77L326.07,322a1.06,1.06,0,0,1,.82,2l-15.1,6.34A1.07,1.07,0,0,1,311.26,330.36Z"/><path class="cls-3" d="M230.63,238.89,59.28,219.05a1.08,1.08,0,0,1-.94-1.18,1.07,1.07,0,0,1,1.18-.94L230.7,236.76l138.59-32a1.08,1.08,0,0,1,1.28.8,1.06,1.06,0,0,1-.8,1.27L231,238.87A.87.87,0,0,1,230.63,238.89Z"/><path class="cls-3" d="M262.19,190.77l-9.77-1.13a1.07,1.07,0,0,1,.25-2.12l9.77,1.13a1.07,1.07,0,0,1-.25,2.12Z"/><polygon class="cls-5" points="79.67 150.94 4.71 132.31 26.15 107.61 86.05 140.19 79.67 150.94"/><polygon class="cls-2" points="79.66 144.78 4.7 126.16 26.14 101.45 86.04 134.04 79.66 144.78"/><polygon class="cls-5" points="79.49 117.14 43.71 89.17 61.26 76.75 90.64 108.19 79.49 117.14"/><polygon class="cls-2" points="79.48 110.98 43.7 83.01 61.25 70.6 90.64 102.03 79.48 110.98"/><polygon class="cls-5" points="336.31 113.22 403.39 96.56 384.2 74.45 330.6 103.61 336.31 113.22"/><polygon class="cls-2" points="336.32 107.72 403.39 91.05 384.21 68.94 330.61 98.1 336.32 107.72"/><polygon class="cls-5" points="336.48 82.98 368.49 57.95 352.79 46.84 326.5 74.97 336.48 82.98"/><polygon class="cls-2" points="336.49 77.47 368.5 52.44 352.8 41.33 326.5 69.46 336.49 77.47"/><polygon class="cls-6" points="210.47 151.91 292.06 158.41 282.31 224.08 214.37 222.13 210.47 151.91"/><polygon class="cls-7" points="282.31 224.08 323.11 211.4 332.37 156.3 292.06 158.41 282.31 224.08"/><polygon class="cls-3" points="330.84 165.42 332.18 157.45 307.39 157.61 292.06 158.41 289.4 176.37 330.84 165.42"/><polygon class="cls-6" points="204.62 158.9 295.8 166.54 299.21 145.08 203.16 136.47 204.62 158.9"/><polygon class="cls-7" points="299.21 145.08 342.61 141.67 343.1 161.18 295.8 166.54 299.21 145.08"/><polygon class="cls-8" points="342.61 141.67 261.18 132.41 203.16 136.47 299.21 145.08 342.61 141.67"/><polygon class="cls-3" points="204.62 158.9 210.89 159.43 214.37 222.13 251.26 223.19 235.18 161.34 239.73 161.99 234.22 139.25 203.16 136.47 204.62 158.9"/><path class="cls-5" d="M295.8,167.16h-.05l-91.18-7.64a.63.63,0,0,1-.58-.58l-1.46-22.43a.63.63,0,0,1,.59-.66.61.61,0,0,1,.66.58l1.43,21.89,90.64,7.6a.62.62,0,0,1-.05,1.24Z"/><polygon class="cls-3" points="233.37 140.63 294.73 138.1 289.15 135.56 232.1 136.83 233.37 140.63"/><path class="cls-2" d="M246.25,68.14S254.7,30.94,232,17.73,175.87,56.11,246.25,68.14Z"/><path class="cls-5" d="M246.25,39a.54.54,0,0,1-.52-.42c-2.26-9.45-7-16.31-14-20.4-5.12-3-11.24-2.74-16.79.66a21.86,21.86,0,0,0-10.5,19.49.54.54,0,0,1-.51.56.52.52,0,0,1-.57-.51,23,23,0,0,1,11-20.46c5.9-3.61,12.42-3.85,17.89-.67,7.3,4.24,12.18,11.33,14.52,21.08a.54.54,0,0,1-.4.65Z"/><path class="cls-3" d="M228.76,43.09a20.38,20.38,0,0,0-18.71-.87c.3,10.1,9.53,21.35,36.28,25.92,0,0,.2-.92.45-2.47C244.2,57.35,239,48.71,228.76,43.09Z"/><path class="cls-2" d="M239.18,58.27S246.59,20.85,272.71,18,308.36,75.91,239.18,58.27Z"/><path class="cls-5" d="M265.07,61.94a.54.54,0,0,1-.54-.51.53.53,0,0,1,.51-.56c12.1-.66,20.86-5.35,24.66-13.2a21.92,21.92,0,0,0-2-21.87c-3.68-5.23-9.12-7.86-14.93-7.24a.54.54,0,1,1-.12-1.07c6.21-.68,12,2.13,15.93,7.69a23,23,0,0,1,2.09,23c-4,8.22-13.07,13.12-25.57,13.8Z"/><path class="cls-3" d="M239.18,58.92l-.13,0a.65.65,0,0,1-.51-.76,80.11,80.11,0,0,1,7-19.18.65.65,0,0,1,1.15.61,78.39,78.39,0,0,0-6.87,18.82A.67.67,0,0,1,239.18,58.92Z"/><path class="cls-3" d="M248.41,61.17l-.21,0a.65.65,0,0,1-.4-.83c.09-.25,8.81-25.09,28.58-27.81a.64.64,0,0,1,.73.55.65.65,0,0,1-.55.74c-19,2.61-27.45,26.7-27.53,26.94A.65.65,0,0,1,248.41,61.17Z"/><path class="cls-3" d="M281.88,43.93a.66.66,0,0,1-.38-.12c-8.1-5.84-18.31-3.64-18.41-3.61a.64.64,0,0,1-.77-.49.65.65,0,0,1,.49-.78c.44-.1,10.86-2.36,19.45,3.83a.64.64,0,0,1,.15.9A.65.65,0,0,1,281.88,43.93Z"/><path class="cls-3" d="M252.81,60.83a.65.65,0,0,1-.2-1.26c.12,0,12.38-4.08,17.61-10.61a.65.65,0,1,1,1,.81c-5.47,6.84-17.7,10.86-18.22,11A.69.69,0,0,1,252.81,60.83Z"/><polygon class="cls-9" points="293.69 79.12 225.94 65.61 229.33 139 290.2 137.38 293.69 79.12"/><polygon class="cls-2" points="248.96 138.48 272.04 137.86 271.12 74.61 252.63 70.93 248.96 138.48"/><polygon class="cls-10" points="229.33 139 192.78 138.02 189.83 63.85 225.94 65.61 229.33 139"/><polygon class="cls-11" points="216.37 65.14 198.5 64.28 198.39 67.28 202.19 138.27 217.26 138.68 216.37 65.14"/><polygon class="cls-3" points="225.94 65.61 189.83 63.85 190.12 71.24 226.56 78.95 225.94 65.61"/><polygon class="cls-9" points="298.93 84.92 222.6 72.35 224.43 54.64 300.25 66.3 298.93 84.92"/><polygon class="cls-10" points="224.43 54.64 180.66 51.72 180.22 67.9 222.6 72.35 224.43 54.64"/><polygon class="cls-2" points="254.12 77.54 275.86 81.12 275.59 62.51 255.11 59.36 254.12 77.54"/><path class="cls-5" d="M298.94,85.45h-.09L222.51,72.88a.53.53,0,0,1-.45-.58l1.83-17.71a.54.54,0,0,1,1.08.11l-1.79,17.2L299,84.38a.56.56,0,0,1,.45.62A.54.54,0,0,1,298.94,85.45Z"/><polygon class="cls-11" points="191.68 69.1 205.74 70.58 207.59 53.52 191.84 52.46 191.68 69.1"/><path class="cls-5" d="M195.31,120.84a1.46,1.46,0,0,1-.57-.12,1.43,1.43,0,0,1-.75-1.89c.13-.31,13.24-31.24,3-47-3.87-6-10.76-9.06-20.46-9.18-10.74-.12-18.39,3-22.77,9.36-10.61,15.4.85,44.9,1,45.19a1.44,1.44,0,0,1-.81,1.87,1.43,1.43,0,0,1-1.87-.81c-.5-1.26-12.15-31.21-.66-47.88,4.95-7.19,13.42-10.77,25.18-10.61,10.73.13,18.41,3.66,22.84,10.49,11.07,17-2.21,48.37-2.78,49.7A1.46,1.46,0,0,1,195.31,120.84Z"/><polygon class="cls-12" points="107.91 220.5 115.71 109.33 210.96 114.2 219.74 234.15 107.91 220.5"/><polygon class="cls-13" points="210.96 114.2 211.77 111.28 220.38 109.98 244.6 226.68 228.51 228.63 219.74 234.15 210.96 114.2"/><polygon class="cls-3" points="115.71 109.33 132.62 107.54 132.94 104.78 220.38 109.98 211.77 111.28 210.96 114.2 115.71 109.33"/><path class="cls-3" d="M139.77,128.18a4.55,4.55,0,1,1-4.55-4.55A4.55,4.55,0,0,1,139.77,128.18Z"/><path class="cls-3" d="M189.18,130.13a4.55,4.55,0,1,1-4.55-4.55A4.55,4.55,0,0,1,189.18,130.13Z"/><path class="cls-5" d="M184.63,131.57a1.41,1.41,0,0,1-.57-.11,1.46,1.46,0,0,1-.76-1.9c.16-.37,15.67-37,3.54-55.64C182.22,66.81,174,63.13,162.5,63c-12.79-.15-21.85,3.59-27.06,11.15-12.6,18.29,1,53.17,1.12,53.52a1.44,1.44,0,0,1-.81,1.87,1.46,1.46,0,0,1-1.88-.81c-.58-1.49-14.27-36.67-.8-56.22,5.78-8.4,15.71-12.54,29.47-12.39,12.56.16,21.54,4.28,26.72,12.25,13,20-2.64,56.79-3.31,58.35A1.42,1.42,0,0,1,184.63,131.57Z"/><path class="cls-13" d="M166.23,223.63a5.58,5.58,0,0,0-.71-1.79h0a5.56,5.56,0,0,1,4.86-8.42A5.56,5.56,0,0,0,173.17,203h0a5.56,5.56,0,0,1,0-9.72h0a5.56,5.56,0,0,0-2.79-10.42,5.55,5.55,0,0,1-4.86-8.41h0a5.56,5.56,0,0,0-7.63-7.63h0a5.55,5.55,0,0,1-8.41-4.86h0a5.56,5.56,0,0,0-10.42-2.79h0a5.56,5.56,0,0,1-9.72,0h0A5.56,5.56,0,0,0,118.92,162h0a5.5,5.5,0,0,1-3.14,5.09l-3.51,50Z"/><path class="cls-5" d="M219.74,234.78a.62.62,0,0,1-.34-1.15l8.78-5.53a.58.58,0,0,1,.26-.09l15.41-1.87-24.08-116a.63.63,0,1,1,1.23-.25l24.22,116.7a.66.66,0,0,1-.11.49.63.63,0,0,1-.43.26l-16,1.93-8.66,5.45A.6.6,0,0,1,219.74,234.78Z"/><path class="cls-5" d="M228.51,229.25a.62.62,0,0,1-.62-.56l-6-61.77a.61.61,0,0,1,.56-.68.63.63,0,0,1,.68.56l6,61.77a.61.61,0,0,1-.56.68Z"/><path class="cls-5" d="M125.64,223.3h-.08l-17.73-2.18a.61.61,0,0,1-.54-.66l2.55-36.4a.63.63,0,0,1,.67-.58.62.62,0,0,1,.58.66L108.58,220l17.13,2.11a.62.62,0,0,1-.07,1.24Z"/><path class="cls-5" d="M462.65,102.05c-.77-21.78,5.05-44.78,20.52-60.13,19.48-19.33,52.41-22.36,76.06-8.45s36.95,42.78,34,70.06C590.53,129.1,573.76,153.11,550,163,505.57,181.52,464.26,147.06,462.65,102.05Z"/><polygon class="cls-5" points="496.3 133.86 443.72 176.76 509.86 153.78 496.3 133.86"/><path class="cls-2" d="M533.32,134c-.87-.26-21.34-6.59-30.36-17.49a42.49,42.49,0,0,1-10.14-23.43c-.78-6,.17-10.7,2.9-14.32,3.08-4.09,8.37-6.43,14.51-6.43a23.17,23.17,0,0,1,6.8,1,36.55,36.55,0,0,1,11.45,6.24A21.72,21.72,0,0,1,538.92,70a22.44,22.44,0,0,1,9.46-2.53h.23a16.49,16.49,0,0,1,14.12,9.27c2.46,4.88,2.47,10.1,2.19,14.11-.59,8.71-2.61,15.43-6.36,21.13-4.82,7.35-19.13,19.7-20.74,21.09l-2,1.7Z"/><path class="cls-4" d="M507.8,113.17a36.87,36.87,0,0,1-8.88-20.52c-.47-3.63-.34-7.56,1.93-10.57,3.3-4.37,10.22-5.34,15.73-3.66s9.94,5.4,14.19,9c2.63-6.41,5-10,10.5-12.5a17.6,17.6,0,0,1,7.45-2c4.22.07,7.93,3,9.7,6.49s1.92,7.51,1.65,11.37c-.54,8-2.35,13.67-5.46,18.4-4.48,6.83-19.4,19.61-19.4,19.61S515.81,122.86,507.8,113.17Z"/><path class="cls-5" d="M507.8,114.12a1,1,0,0,1-.74-.35,38,38,0,0,1-9.08-21c-.63-4.86.06-8.54,2.11-11.26,3.67-4.86,11.21-5.69,16.77-4a1,1,0,0,1,.63,1.19.94.94,0,0,1-1.18.63c-4.93-1.5-11.56-.84-14.7,3.32-1.74,2.3-2.31,5.53-1.75,9.88a35.83,35.83,0,0,0,8.67,20,1,1,0,0,1-.13,1.34A.93.93,0,0,1,507.8,114.12Z"/><path class="cls-5" d="M560.07,91.7H560a1,1,0,0,1-.88-1c.21-3.19.23-7.32-1.56-10.87-1.47-2.93-4.78-5.9-8.87-6h-.14a17,17,0,0,0-6.89,2,1,1,0,0,1-1.26-.47.94.94,0,0,1,.47-1.25,18.66,18.66,0,0,1,7.85-2.14,12.38,12.38,0,0,1,10.54,7c2,4,2,8.42,1.75,11.86A1,1,0,0,1,560.07,91.7Z"/><path class="cls-2" d="M516.5,109.48a25.83,25.83,0,0,1-6.22-14.39c-.33-2.54-.24-5.3,1.35-7.41,2.31-3.07,7.17-3.74,11-2.57s7,3.79,10,6.33c1.84-4.5,3.49-7,7.36-8.77a12.33,12.33,0,0,1,5.23-1.44,8.09,8.09,0,0,1,6.8,4.55,15.22,15.22,0,0,1,1.16,8c-.38,5.58-1.65,9.59-3.83,12.91-3.14,4.78-13.61,13.75-13.61,13.75S522.13,116.28,516.5,109.48Z"/><path class="cls-5" d="M430.83,260.36c-.12-19.47,9.05-39,24.78-50.5,10.2-7.44,22.57-11.33,35-13.64,10.77-2,22.19-2.84,32.43,1.05,12,4.56,26.62,14.16,34.13,24.55,10,13.78,13.23,30.2,13,47.21-.18,12-5.16,23.55-12.19,33.28-11.55,16-29.33,27.77-48.88,30.25C469.22,337.62,431.06,299.24,430.83,260.36Z"/><polygon class="cls-5" points="450.75 286.44 390.21 288 452.31 303.52 450.75 286.44"/><path class="cls-2" d="M488.81,303.29a7.12,7.12,0,0,1-2.73-1.56c-4.55-4.11-15.44-14.67-18.18-23.91-2.68-9.09,3.82-32.44,7.93-45.56a7,7,0,0,1,5.94-5,6,6,0,0,1,2.27.23,6.09,6.09,0,0,1,3.44,2.74c.16.27,1.19,1.74,5.31,3.43.32.13.65.25,1,.35,4.35,1.33,9.56.27,12.28-.48a7.19,7.19,0,0,1,7.47,2.29c1.84,2.14,5.57,5.93,9.92,7.26.34.1.68.19,1,.26,4.37.9,6,.26,6.33.12a6.05,6.05,0,0,1,4.38-.34,5.83,5.83,0,0,1,2,1.07,7,7,0,0,1,2.1,7.51c-3.92,13.17-11.58,36.17-18.89,42.2s-22.37,8.8-28.45,9.67A7.19,7.19,0,0,1,488.81,303.29Z"/><path class="cls-4" d="M535.51,250.9a3.54,3.54,0,0,0-1-3.79h0a2.53,2.53,0,0,0-2.72-.3c-1.26.6-3.73,1.1-8.39.14-5.66-1.17-10.37-5.85-12.68-8.54a3.69,3.69,0,0,0-3.89-1.19c-3.42.94-9.94,2.19-15.29,0-4.4-1.81-6.17-3.6-6.88-4.8a2.5,2.5,0,0,0-2.42-1.28h0a3.58,3.58,0,0,0-2.91,2.61c-2.55,8.14-10.37,34.36-7.81,43,2.49,8.43,13.21,18.66,17,22.05a3.69,3.69,0,0,0,3,.92c5-.71,19.61-3.2,26.39-8.8C524.9,285.18,533.08,259.07,535.51,250.9Z"/><path class="cls-5" d="M489.72,300.32a4.61,4.61,0,0,1-1.7-1c-4.33-3.91-14.67-13.93-17.18-22.4s4.62-33.24,7.82-43.43a4.34,4.34,0,0,1,3.56-3.15,3.28,3.28,0,0,1,3.14,1.65c.65,1.1,2.3,2.76,6.51,4.49,5.15,2.11,11.49.89,14.81,0a.75.75,0,1,1,.4,1.45c-3.51,1-10.22,2.25-15.78,0-4.6-1.89-6.48-3.83-7.24-5.12a1.76,1.76,0,0,0-1.71-.91A2.82,2.82,0,0,0,480.1,234c-2.46,7.85-10.31,34.11-7.81,42.55s13.44,18.72,16.75,21.71a2.91,2.91,0,0,0,2.41.73.77.77,0,0,1,.86.65.75.75,0,0,1-.64.85A4.72,4.72,0,0,1,489.72,300.32Z"/><path class="cls-2" d="M507.82,242.54a32.49,32.49,0,0,0,12,7.31q.85.27,1.71.45c4.6,1,8.25,1,10.87.1-5.84,19.58-12.33,34.24-16.59,37.4-5.21,3.86-16.53,6-24,7Z"/><path class="cls-5" d="M491.63,295.5a.75.75,0,0,1-.5-.94l16-52.24a.75.75,0,0,1,.94-.5.76.76,0,0,1,.5,1l-16,52.23A.77.77,0,0,1,491.63,295.5Z"/></g></svg>