<svg xmlns="http://www.w3.org/2000/svg" viewBox="0 0 28.73 27.25"><defs><style>.cls-1{fill:#faf480;}</style></defs><g id="BANNER_1" data-name="BANNER 1"><path class="cls-1" d="M14.93,27.25a19.21,19.21,0,0,1-9.75-2.58C.2,21.4-1.48,14.14,1.43,8.49,3.94,3.63,9.77-.8,16.08.12h0c5.31.78,9.49,3.77,11.47,8.21a13.73,13.73,0,0,1-1.17,13.22C23.52,25.85,19.1,27.25,14.93,27.25ZM14.45,4C10.85,4,6.92,6.56,5,10.32s-.87,8.86,2.4,11c2.11,1.39,11.4,4.43,15.66-2A9.71,9.71,0,0,0,23.9,10c-1.44-3.21-4.42-5.3-8.4-5.88h0A7.2,7.2,0,0,0,14.45,4Z"/></g></svg>