<svg xmlns="http://www.w3.org/2000/svg" viewBox="0 0 806.23 426.68"><defs><style>.cls-1{fill:#fff;}</style></defs><g id="BANNER_1" data-name="BANNER 1"><path class="cls-1" d="M610.27,406.38s-7.91-2.74-10.44-5C597.51,399.39,595,391,595,391s-2.53,8.35-4.85,10.38c-2.53,2.22-10.43,5-10.43,5h0s7.9,2.74,10.43,4.95c2.32,2,4.85,10.38,4.85,10.38s2.53-8.35,4.85-10.38c2.53-2.21,10.44-4.95,10.44-4.95Z"/><path class="cls-1" d="M174,33.22s-7.06-2.45-9.32-4.43c-2.06-1.81-4.33-9.27-4.33-9.27s-2.26,7.46-4.32,9.27c-2.26,2-9.32,4.43-9.32,4.43h0s7.06,2.44,9.32,4.42c2.06,1.81,4.32,9.27,4.32,9.27s2.27-7.46,4.33-9.27c2.26-2,9.32-4.42,9.32-4.42Z"/><path class="cls-1" d="M283.6,413s-7.06-2.45-9.32-4.42c-2.07-1.81-4.33-9.27-4.33-9.27s-2.26,7.46-4.32,9.27c-2.26,2-9.32,4.42-9.32,4.42h0s7.06,2.45,9.32,4.42c2.06,1.81,4.32,9.27,4.32,9.27s2.26-7.46,4.33-9.27c2.26-2,9.32-4.42,9.32-4.42Z"/><path class="cls-1" d="M403,61.19s-13.4-4.65-17.69-8.4c-3.93-3.44-8.22-17.6-8.22-17.6s-4.29,14.16-8.22,17.6c-4.29,3.75-17.69,8.4-17.69,8.4h0s13.4,4.64,17.69,8.39c3.93,3.44,8.22,17.6,8.22,17.6s4.29-14.16,8.22-17.6c4.29-3.75,17.69-8.39,17.69-8.39Z"/><path class="cls-1" d="M70.2,213.54s-5.6-1.94-7.39-3.51-3.44-7.35-3.44-7.35-1.79,5.92-3.43,7.35-7.39,3.51-7.39,3.51h0s5.6,1.94,7.39,3.51,3.43,7.36,3.43,7.36,1.8-5.92,3.44-7.36,7.39-3.51,7.39-3.51Z"/><path class="cls-1" d="M778,237.46s-5.6-2-7.39-3.51-3.43-7.36-3.43-7.36-1.8,5.92-3.44,7.36-7.39,3.51-7.39,3.51h0s5.6,1.94,7.39,3.5,3.44,7.36,3.44,7.36,1.79-5.92,3.43-7.36,7.39-3.5,7.39-3.5Z"/><path class="cls-1" d="M795.21,314.49s-5.6-1.95-7.39-3.51-3.44-7.36-3.44-7.36-1.79,5.92-3.43,7.36c-1.79,1.56-7.39,3.51-7.39,3.51h0s5.6,1.94,7.39,3.5c1.64,1.44,3.43,7.36,3.43,7.36s1.8-5.92,3.44-7.36,7.39-3.5,7.39-3.5Z"/><path class="cls-1" d="M543.76,35.78s-9.58-3.32-12.65-6c-2.81-2.45-5.88-12.58-5.88-12.58s-3.07,10.13-5.88,12.58c-3.06,2.69-12.65,6-12.65,6h0s9.59,3.32,12.65,6c2.81,2.45,5.88,12.58,5.88,12.58s3.07-10.13,5.88-12.58c3.07-2.69,12.65-6,12.65-6Z"/><path class="cls-1" d="M103.37,94.94S99.29,93.52,98,92.37,95.47,87,95.47,87,94.16,91.33,93,92.37s-5.39,2.57-5.39,2.57h0S91.66,96.35,93,97.5s2.51,5.36,2.51,5.36S96.78,98.54,98,97.5s5.39-2.56,5.39-2.56Z"/><path class="cls-1" d="M760.29,131.63s-4.09-1.42-5.4-2.56-2.5-5.37-2.5-5.37-1.31,4.32-2.51,5.37-5.4,2.56-5.4,2.56h0s4.09,1.41,5.4,2.56,2.51,5.37,2.51,5.37,1.3-4.32,2.5-5.37,5.4-2.56,5.4-2.56Z"/><path class="cls-1" d="M111.24,345.9s-4.08-1.42-5.39-2.57-2.51-5.36-2.51-5.36-1.31,4.32-2.5,5.36-5.4,2.57-5.4,2.57h0s4.09,1.41,5.4,2.56,2.5,5.36,2.5,5.36,1.31-4.31,2.51-5.36,5.39-2.56,5.39-2.56Z"/></g></svg>