<svg xmlns="http://www.w3.org/2000/svg" viewBox="0 0 287.85 367.76"><defs><style>.cls-1{fill:#022c11;}.cls-2{fill:#6a983c;}</style></defs><g id="BANNER_1" data-name="BANNER 1"><path class="cls-1" d="M273.52,130c-7.9-10.77-30.9-14.42-42.67-8.09s-17.63,21.85-13,34.38c-14-8.72-34.12-2-43.19,11.81s-8.52,32.3-2.26,47.59c-9.67-.81-19.64-1.59-28.86,1.41s-17.61,10.79-18.2,20.47c-13.64-6.8-31.52-3.83-42.22,7s-13.44,28.77-6.44,42.32c-16.47-1.69-34.22-1.57-48.12,7.41S7.3,324,17.49,337h256Z"/><path class="cls-1" d="M66.62,291.73c-9-10.3-14.39-23.37-17.11-36.76s-2.9-27.18-2.41-40.84a174.13,174.13,0,0,1,55,53.72,14.29,14.29,0,0,1,2.47,5.43c.94,6.12-5.74,11.62-4.48,17.68a76.48,76.48,0,0,0,12.52-17.75c-.41.81,2.34,8.26,2.49,9.77a35.4,35.4,0,0,1-.63,10.57c-1.31,6.18-4.84,14.81-10.32,18.53C94.27,318.79,72.94,299,66.62,291.73Z"/><path class="cls-2" d="M113,275.67a6.34,6.34,0,0,1-.4-2.46c-.47.92-1,1.84-1.48,2.74a73,73,0,0,1-10.93,29.89Q88.83,288,78.17,269.67a.82.82,0,0,0,.14-.28q3.54-12.12,6.08-24.48c-.5-.55-1-1.1-1.52-1.64Q80.4,255.51,77,267.54q-1.59-2.75-3.17-5.5a.88.88,0,0,0,.07-.23q1.83-12.51,2.49-25.12l-1.73-1.64q-.6,12.25-2.29,24.42-5.71-10.11-11.2-20.34-6.4-11.94-12.46-24l-1.56-1L47,215.94q8.25,16.4,17.07,32.51c-5.52-1.79-11-3.51-16.41-5.62.07.68.14,1.37.22,2,5.46,2.09,11.06,3.8,16.66,5.63a.9.9,0,0,0,.65,0q10.29,18.64,21.34,36.87a122.23,122.23,0,0,1-27.76-6.75c.47.84,1,1.67,1.46,2.49a123.3,123.3,0,0,0,27.32,6.22h.17Q91.33,295.17,95,301q3.76,6,7.61,11.91a7.45,7.45,0,0,0,1.59-.81l0,0c-1-1.51-2-3-2.92-4.51A75,75,0,0,0,113,275.67Z"/><path class="cls-1" d="M148.37,240.61c-7.4-8.47-11.85-19.24-14.09-30.27s-2.38-22.37-2-33.62A143.33,143.33,0,0,1,177.61,221a11.78,11.78,0,0,1,2,4.47c.77,5-4.73,9.57-3.7,14.56a62.45,62.45,0,0,0,10.31-14.62c-.34.68,1.93,6.81,2.05,8a28.57,28.57,0,0,1-.52,8.7c-1.07,5.09-4,12.19-8.5,15.26C171.14,262.9,153.57,246.58,148.37,240.61Z"/><path class="cls-2" d="M186.59,227.39a5.2,5.2,0,0,1-.33-2c-.38.77-.79,1.52-1.21,2.26a60.18,60.18,0,0,1-9,24.61q-9.39-14.7-18.17-29.78a.84.84,0,0,0,.12-.23q2.91-10,5-20.16l-1.26-1.35q-2,10.08-4.87,20-1.32-2.26-2.61-4.53a1,1,0,0,0,0-.2c1-6.86,1.68-13.76,2.06-20.68L155,194q-.49,10.08-1.88,20.1-4.71-8.31-9.23-16.75-5.26-9.83-10.26-19.79l-1.28-.79c0,.49,0,1-.05,1.49q6.8,13.5,14.06,26.76c-4.55-1.47-9.09-2.88-13.52-4.62L133,202c4.5,1.72,9.11,3.13,13.72,4.64a.82.82,0,0,0,.54,0Q155.69,222,164.8,237a100,100,0,0,1-22.86-5.55c.39.69.79,1.37,1.21,2a101.62,101.62,0,0,0,22.49,5.12h.14q2.94,4.81,5.94,9.6T178,258a5.93,5.93,0,0,0,1.3-.67.1.1,0,0,0,.05,0c-.8-1.23-1.61-2.47-2.4-3.71A61.78,61.78,0,0,0,186.59,227.39Z"/><path class="cls-1" d="M240.88,72.19c-2.85-10.88-2-22.5.86-33.37s7.82-21.11,13.19-31A143.55,143.55,0,0,1,275.82,67.6a11.76,11.76,0,0,1-.17,4.91c-1.55,4.85-8.49,6.46-9.78,11.39a62.89,62.89,0,0,0,15.74-8.5c-.61.45-1.31,6.95-1.75,8.11a29.07,29.07,0,0,1-4.34,7.57c-3.22,4.08-9,9.14-14.4,9.88C251.36,102.28,242.89,79.85,240.88,72.19Z"/><path class="cls-2" d="M281,77.36a4.86,4.86,0,0,1,.61-2c-.69.51-1.39,1-2.1,1.48a60.09,60.09,0,0,1-19,18q-1.86-17.34-3-34.75a.74.74,0,0,0,.2-.16q7.05-7.64,13.46-15.82c-.17-.59-.35-1.18-.53-1.77q-6.31,8.13-13.26,15.73c-.11-1.74-.22-3.47-.32-5.21a.67.67,0,0,0,.14-.15q5.93-8.55,11-17.61c-.22-.62-.45-1.23-.68-1.84q-4.94,8.81-10.63,17.17-.51-9.55-.81-19.11-.35-11.14-.38-22.29l-.79-1.28c-.24.44-.48.88-.71,1.32q.06,15.11.67,30.22c-3.41-3.35-6.85-6.63-10-10.16-.2.53-.4,1.06-.59,1.6,3.26,3.54,6.76,6.85,10.22,10.25a.75.75,0,0,0,.49.23q.75,17.52,2.23,35a100.48,100.48,0,0,1-18-15.15c0,.8.1,1.58.17,2.37a101.54,101.54,0,0,0,17.86,14.6l.13.07q.48,5.61,1.05,11.23.58,5.79,1.25,11.58a6.49,6.49,0,0,0,1.46,0h.06c-.17-1.47-.34-2.93-.5-4.4A61.75,61.75,0,0,0,281,77.36Z"/><path class="cls-1" d="M196.84,152.12c.73-11.23,5.16-22,11.34-31.4s14.08-17.56,22.29-25.25a143.47,143.47,0,0,1,1,63.31,12,12,0,0,1-1.71,4.61c-3,4.12-10.09,3.45-12.88,7.72a62.48,62.48,0,0,0,17.62-3.1c-.72.23-3.43,6.18-4.22,7.15a29,29,0,0,1-6.5,5.81c-4.35,2.85-11.41,5.84-16.78,4.83C197.3,184,196.33,160,196.84,152.12Z"/><path class="cls-2" d="M233.29,169.68a4.83,4.83,0,0,1,1.19-1.67c-.81.26-1.63.51-2.46.74a60.12,60.12,0,0,1-23.72,11.12q3.69-17,8.1-33.93a1,1,0,0,0,.24-.08q9.09-5,17.76-10.77l.06-1.85Q225.91,139,216.92,144c.44-1.69.88-3.37,1.34-5.05l.17-.1q8.32-6.26,16-13.23c0-.65,0-1.31-.06-2q-7.46,6.81-15.51,12.94,2.54-9.23,5.26-18.39,3.19-10.68,6.67-21.27c-.12-.49-.23-1-.35-1.46l-1.08,1q-4.71,14.37-8.9,28.89c-2.19-4.25-4.41-8.45-6.32-12.8l-1.07,1.32c2,4.4,4.26,8.65,6.47,13a.79.79,0,0,0,.4.37q-4.83,16.86-8.93,33.91a100.18,100.18,0,0,1-12.31-20c-.21.76-.4,1.53-.58,2.3a101,101,0,0,0,12.35,19.49l.09.1q-1.31,5.49-2.54,11-1.28,5.69-2.47,11.38a6.16,6.16,0,0,0,1.4.44H207c.3-1.44.6-2.88.91-4.32A61.92,61.92,0,0,0,233.29,169.68Z"/><path class="cls-2" d="M128.19,331.75c-13.78-15.78-22-35.81-26.22-56.34s-4.44-41.65-3.69-62.58a266.77,266.77,0,0,1,84.33,82.33c1.67,2.58,3.33,5.28,3.79,8.32,1.44,9.38-8.8,17.8-6.87,27.09a116.62,116.62,0,0,0,19.19-27.21c-.64,1.26,3.59,12.67,3.81,15a54.08,54.08,0,0,1-1,16.2c-2,9.47-7.41,22.69-15.82,28.39C170.57,373.22,137.88,342.85,128.19,331.75Z"/><path class="cls-1" d="M199.33,307.14c-.51-1.89-.82-3.37-.61-3.78-.72,1.42-1.48,2.83-2.26,4.21a111.91,111.91,0,0,1-16.76,45.8Q162.24,326,145.9,297.94a1.23,1.23,0,0,0,.21-.43q5.41-18.57,9.32-37.51-1.16-1.26-2.34-2.52-3.78,18.78-9.07,37.2-2.43-4.2-4.85-8.43a1.26,1.26,0,0,0,.1-.36q2.8-19.15,3.82-38.49c-.88-.84-1.76-1.68-2.65-2.51q-.93,18.78-3.5,37.43-8.77-15.49-17.18-31.18-9.8-18.28-19.09-36.83l-2.39-1.48-.09,2.77q12.65,25.14,26.16,49.82c-8.47-2.74-16.91-5.38-25.15-8.61.11,1.05.21,2.1.34,3.14,8.37,3.21,16.94,5.84,25.53,8.64a1.42,1.42,0,0,0,1,0q15.75,28.59,32.69,56.5a186.94,186.94,0,0,1-42.54-10.34c.73,1.29,1.47,2.56,2.25,3.81a188.85,188.85,0,0,0,41.86,9.54h.27q5.46,9,11.05,17.86,5.78,9.18,11.67,18.26a11.65,11.65,0,0,0,2.43-1.25l.08-.06c-1.49-2.3-3-4.6-4.47-6.91A114.85,114.85,0,0,0,199.33,307.14Z"/><path class="cls-2" d="M211.27,240.25c-13.81-8.71-24.46-21.82-32.17-36.22s-12.62-30.12-16.73-45.93a208.24,208.24,0,0,1,81.38,42.66,17.31,17.31,0,0,1,4.69,5.37c3.16,6.69-2.6,15.26.92,21.77a90.7,90.7,0,0,0,8.25-24.61c-.19,1.08,5.51,8.66,6.19,10.34a42,42,0,0,1,2.9,12.31c.62,7.52-.46,18.61-5.47,24.74C252.19,261.76,221,246.38,211.27,240.25Z"/><path class="cls-1" d="M258.91,206a7.45,7.45,0,0,1-1.3-2.68c-.22,1.22-.48,2.44-.75,3.65a87.27,87.27,0,0,1-2.28,37.95Q235.41,228.36,217,211a1.06,1.06,0,0,0,.06-.37q-.1-15.07-1.42-30.1c-.76-.45-1.53-.91-2.31-1.35q1.36,14.86,1.54,29.81c-1.84-1.74-3.68-3.47-5.51-5.22a1.4,1.4,0,0,0,0-.29q-2.19-14.94-5.75-29.6c-.84-.44-1.69-.86-2.54-1.28q3.49,14.22,5.74,28.73-10-9.62-19.79-19.45-11.4-11.47-22.49-23.24l-2.11-.58c.18.7.37,1.4.55,2.1q15.06,15.95,30.67,31.36c-6.94-.15-13.84-.24-20.71-.81.31.76.63,1.52,1,2.27,7,.53,14,.57,21,.75a1.16,1.16,0,0,0,.74-.25q18.15,17.82,37,34.89a145.3,145.3,0,0,1-34.08,1.79c.83.79,1.67,1.58,2.53,2.34a146.82,146.82,0,0,0,33.4-2.23l.19-.05q6.09,5.48,12.25,10.86,6.36,5.56,12.8,11a9.3,9.3,0,0,0,1.53-1.48l0-.06-4.88-4.16A89.65,89.65,0,0,0,258.91,206Z"/><path class="cls-2" d="M282.46,148.48c-.28-17.22-6.26-34-15-48.84s-20.23-27.88-32.22-40.25a219.54,219.54,0,0,0-6.15,96.72,18.16,18.16,0,0,0,2.26,7.17c4.29,6.52,15.18,6,19.12,12.76a96,96,0,0,1-26.7-6c1.08.42,4.78,9.71,5.92,11.25a44.38,44.38,0,0,0,9.51,9.35c6.44,4.69,17,9.78,25.3,8.63C279.41,197.15,282.65,160.6,282.46,148.48Z"/><path class="cls-1" d="M225.45,172.63a7.77,7.77,0,0,0-1.7-2.64c1.22.47,2.46.91,3.7,1.33a92.2,92.2,0,0,0,35.45,18.74q-4.39-26.34-9.88-52.47a1.25,1.25,0,0,1-.37-.15q-13.53-8.35-26.35-17.77c0-.94,0-1.88,0-2.83q12.66,9.38,26,17.73-.83-3.91-1.68-7.82a1.45,1.45,0,0,1-.26-.17q-12.26-10.15-23.53-21.4c.07-1,.15-2,.24-3q10.91,10.95,22.75,20.92-3.18-14.28-6.68-28.5-4.1-16.56-8.63-33c.21-.74.42-1.48.64-2.21.53.54,1.06,1.09,1.58,1.64q6.13,22.32,11.47,44.83c3.66-6.34,7.36-12.6,10.61-19.11.52.7,1,1.4,1.53,2.11-3.35,6.56-7.14,12.89-10.84,19.33a1.15,1.15,0,0,1-.63.53q6.12,26.13,11.15,52.51a153.88,153.88,0,0,0,20.29-29.74c.26,1.18.51,2.37.72,3.56a155.28,155.28,0,0,1-20.31,28.88,1.14,1.14,0,0,1-.16.15q1.61,8.49,3.09,17,1.51,8.79,2.93,17.58a9.51,9.51,0,0,1-2.17.57h-.09c-.36-2.22-.71-4.45-1.07-6.68A94.54,94.54,0,0,1,225.45,172.63Z"/><path class="cls-2" d="M265.73,301c-6.65-15.89-18.43-29.26-32.06-39.78s-29.13-18.39-44.85-25.43A219.39,219.39,0,0,0,219,327.86a18,18,0,0,0,4.77,5.82c6.4,4.46,16.33,0,22.48,4.76a96.08,96.08,0,0,1-27,4.29c1.16,0,8.05,7.24,9.68,8.24a44.26,44.26,0,0,0,12.3,5.17c7.71,2,19.43,2.76,26.69-1.37C281,347.3,270.41,312.15,265.73,301Z"/><path class="cls-1" d="M221.76,344.55a7.69,7.69,0,0,0-2.57-1.82q2,0,3.93-.15A92,92,0,0,0,263,346.84Q249.14,324,234.35,301.78a1.27,1.27,0,0,1-.39,0Q218.3,299,202.9,295.05c-.35-.88-.68-1.76-1-2.64q15.23,4,30.74,6.8c-1.48-2.21-3-4.43-4.46-6.64a1,1,0,0,1-.3-.05q-15.17-4.89-29.8-11.15c-.3-.95-.59-1.91-.88-2.87q14.19,6.13,28.89,11-8.25-12.09-16.78-24-9.95-13.87-20.25-27.46c-.08-.76-.16-1.52-.23-2.29l2.08.94q14,18.44,27.27,37.38c1.05-7.25,2.17-14.44,2.77-21.69l2.2,1.39c-.67,7.34-1.84,14.62-2.89,22a1.16,1.16,0,0,1-.39.73q15.38,22,29.83,44.63A153,153,0,0,0,257.5,286c.68,1,1.35,2,2,3a155,155,0,0,1-8.14,34.36,1.14,1.14,0,0,1-.1.19q4.63,7.29,9.17,14.64,4.68,7.59,9.24,15.24a9.57,9.57,0,0,1-1.8,1.34l-.08,0c-1.15-1.94-2.3-3.88-3.47-5.81A94.49,94.49,0,0,1,221.76,344.55Z"/><path class="cls-2" d="M90.49,301.37c-12.19-8.6-27-13-41.85-14.45s-29.84-.09-44.62,2a190,190,0,0,0,64.53,53.72,15.58,15.58,0,0,0,6.17,2.08c6.75.33,12-7.54,18.7-6.85a83.64,83.64,0,0,1-17.88,15.59c.84-.54,9.24,1.61,10.9,1.6a38.38,38.38,0,0,0,11.4-1.87c6.57-2.11,15.54-6.91,19-13.29C123,328.37,99.07,307.42,90.49,301.37Z"/><path class="cls-1" d="M78.26,353.6a6.57,6.57,0,0,0-2.72-.16c1-.62,1.89-1.26,2.82-1.91a80,80,0,0,0,31.23-15.23q-20.67-10.38-41.76-19.9a.84.84,0,0,1-.29.18q-12.77,5.21-25.9,9.36l-2-1.47q13-4.07,25.7-9.16l-6.33-2.82a.82.82,0,0,1-.25.1q-13.38,3.39-27,5.53l-2-1.7q13.24-2,26.27-5.22-11.62-5.08-23.36-9.89-13.68-5.61-27.5-10.83c-.41-.53-.82-1.05-1.22-1.58l2-.27q18.74,7.11,37.22,14.88c-2.57-5.8-5.05-11.59-8-17.19h2.26c2.88,5.7,5.37,11.58,8,17.46a1,1,0,0,1,0,.71Q67,313.58,88,323.53a133,133,0,0,0-10.44-29.39c1,.42,1.91.86,2.86,1.31a134.83,134.83,0,0,1,9.83,29,1.37,1.37,0,0,1,0,.19q6.75,3.22,13.47,6.53,6.91,3.41,13.79,6.93a8.16,8.16,0,0,1-.7,1.81l0,.06-5.22-2.66A82,82,0,0,1,78.26,353.6Z"/></g></svg>