<svg width="42" height="40" viewBox="0 0 42 40" fill="none" xmlns="http://www.w3.org/2000/svg">
<rect x="2" width="40" height="40" rx="20" fill="#2C2A29"/>
<path fill-rule="evenodd" clip-rule="evenodd" d="M23.6175 14.7016C23.2828 14.6828 22.9863 14.6191 22.728 14.5105C22.4172 14.3791 22.174 14.1873 21.9982 13.9352C21.8242 13.683 21.7301 13.3759 21.7159 13.0137H22.688C22.7022 13.2036 22.7608 13.3617 22.8638 13.4877C22.9668 13.6138 23.1008 13.7079 23.266 13.77C23.3748 13.8106 23.492 13.8379 23.6175 13.852V12.2476L23.3139 12.1694C22.8647 12.054 22.5096 11.8791 22.2486 11.6447C21.9893 11.4085 21.8597 11.0952 21.8597 10.7045C21.8597 10.3831 21.9467 10.1017 22.1207 9.86024C22.2965 9.61877 22.5353 9.43144 22.8372 9.29828C23.0729 9.19288 23.333 9.12864 23.6175 9.10557V8.48862H24.0543V9.10162C24.3627 9.12054 24.6379 9.18609 24.8799 9.29828C25.1729 9.43144 25.4028 9.61699 25.5698 9.85492C25.7367 10.0911 25.8228 10.3627 25.8281 10.6699H24.8773C24.8524 10.4373 24.7477 10.2562 24.563 10.1266C24.4248 10.0287 24.2553 9.96773 24.0543 9.94378V11.4609L24.2993 11.5222C24.5053 11.5701 24.7033 11.6349 24.8933 11.7166C25.085 11.7983 25.2564 11.9013 25.4073 12.0255C25.56 12.1498 25.6807 12.2999 25.7695 12.4757C25.8583 12.6514 25.9027 12.8574 25.9027 13.0936C25.9027 13.4132 25.821 13.6946 25.6576 13.9378C25.4943 14.1793 25.2581 14.3684 24.9492 14.5051C24.6952 14.6167 24.3969 14.6822 24.0543 14.7015V15.3068H23.6175V14.7016ZM24.3899 13.7674C24.2885 13.8075 24.1766 13.835 24.0543 13.85V12.3615C24.2003 12.4031 24.3308 12.4491 24.4458 12.4996C24.5932 12.5618 24.7077 12.6399 24.7894 12.734C24.8711 12.8263 24.9128 12.9435 24.9146 13.0856C24.9128 13.2418 24.8657 13.3785 24.7734 13.4957C24.6811 13.6111 24.5532 13.7017 24.3899 13.7674ZM23.6175 11.3487C23.5631 11.3326 23.509 11.3149 23.4551 11.2958C23.345 11.2567 23.2446 11.2088 23.1541 11.152C23.0635 11.0934 22.9916 11.0224 22.9384 10.9389C22.8869 10.8554 22.8611 10.7569 22.8611 10.6433C22.8629 10.5066 22.9028 10.3849 22.981 10.2784C23.0591 10.1719 23.1718 10.0875 23.3192 10.0254C23.408 9.98793 23.5074 9.96176 23.6175 9.94688V11.3487Z" fill="white"/>
<path fill-rule="evenodd" clip-rule="evenodd" d="M29.5 11.875C29.5 14.9816 26.9816 17.5 23.875 17.5C20.7684 17.5 18.25 14.9816 18.25 11.875C18.25 8.7684 20.7684 6.25 23.875 6.25C26.9816 6.25 29.5 8.7684 29.5 11.875ZM28.25 11.875C28.25 14.2912 26.2912 16.25 23.875 16.25C21.4588 16.25 19.5 14.2912 19.5 11.875C19.5 9.45875 21.4588 7.5 23.875 7.5C26.2912 7.5 28.25 9.45875 28.25 11.875Z" fill="white"/>
<path fill-rule="evenodd" clip-rule="evenodd" d="M30.9977 19.1368C31.5936 18.243 32.7342 17.8887 33.7317 18.2877C35.0714 18.8236 35.5786 20.4565 34.7782 21.6571L33.3696 23.7699L28.1428 28.9968H19.7593C19.992 29.6563 19.8445 30.42 19.3169 30.9476L16.6339 33.6307L8.25 25.2468L10.9331 22.5637C11.6285 21.8683 12.7343 21.8333 13.471 22.4589C13.5256 22.402 13.585 22.342 13.649 22.2796C14.0619 21.8772 14.6761 21.3686 15.4835 20.9437C17.0973 20.0943 19.4429 19.6038 22.3897 20.8718H26.9465C27.8062 20.8718 28.5501 21.3677 28.9077 22.0892L29.2732 21.7236L30.9977 19.1368ZM29.0267 23.7379C28.7411 24.6138 27.9177 25.2468 26.9465 25.2468H22.259V23.9968L26.9465 23.9968C27.4642 23.9968 27.884 23.577 27.884 23.0593C27.884 22.5415 27.4642 22.1218 26.9465 22.1218H22.1263L22.0051 22.0679C19.3848 20.9033 17.3982 21.3485 16.0657 22.0498C15.3887 22.4062 14.8701 22.8351 14.5213 23.1749C14.4623 23.2324 14.4083 23.2872 14.3594 23.3384L18.7678 27.7468H27.6251L32.3982 22.9736L33.7381 20.9638C34.0981 20.4238 33.87 19.6893 33.2674 19.4483C32.8188 19.2689 32.3058 19.4282 32.0378 19.8302L30.2446 22.5199L29.0267 23.7379ZM12.7008 23.4476C12.4567 23.2035 12.061 23.2035 11.8169 23.4476L10.0178 25.2468L16.6339 31.8629L18.4331 30.0637C18.6771 29.8196 18.6771 29.4239 18.4331 29.1798L12.7008 23.4476Z" fill="white"/>
</svg>
